<svg xmlns="http://www.w3.org/2000/svg" width="1024" height="280" viewBox="0 0 1024 280" fill="none"><defs>
<linearGradient id="g" x1="0" y1="0" x2="1" y2="1"><stop stop-color="#FFF1A8"/><stop offset=".48" stop-color="#E9B74A"/><stop offset="1" stop-color="#955B18"/></linearGradient>
<linearGradient id="b" x1="0" y1="0" x2="1" y2="1"><stop stop-color="#1E9FD2"/><stop offset="1" stop-color="#0A1D55"/></linearGradient>
<filter id="glow" x="-50%" y="-50%" width="200%" height="200%"><feGaussianBlur stdDeviation="5" result="x"/><feMerge><feMergeNode in="x"/><feMergeNode in="SourceGraphic"/></feMerge></filter>
</defs><g id="wave" stroke="url(#g)" stroke-width="7" stroke-linecap="round"><path d="M30 128v24"/><path d="M54 116v48"/><path d="M78 96v88"/><path d="M102 68v144"/><path d="M126 106v68"/><path d="M150 50v180"/><path d="M174 85v110"/><path d="M198 115v50"/><path d="M222 72v136"/><path d="M246 30v220"/><path d="M270 92v96"/><path d="M294 112v56"/><path d="M318 64v152"/><path d="M342 45v190"/><path d="M366 98v84"/><path d="M390 122v36"/><path d="M414 82v116"/><path d="M438 35v210"/><path d="M462 74v132"/><path d="M486 109v62"/><path d="M510 52v176"/><path d="M534 91v98"/><path d="M558 115v50"/><path d="M582 70v140"/><path d="M606 26v228"/><path d="M630 88v104"/><path d="M654 110v60"/><path d="M678 60v160"/><path d="M702 44v192"/><path d="M726 96v88"/><path d="M750 120v40"/><path d="M774 79v122"/><path d="M798 32v216"/><path d="M822 70v140"/><path d="M846 105v70"/><path d="M870 58v164"/><path d="M894 94v92"/><path d="M918 116v48"/><path d="M942 76v128"/><path d="M966 48v184"/></g></svg>